<svg width="734" height="603" viewBox="0 0 734 603" fill="none" xmlns="http://www.w3.org/2000/svg">
<g filter="url(#filter0_f_65_87)">
<rect x="138" y="138" width="458" height="327" rx="163.5" fill="#191F40"/>
</g>
<path d="M308.425 262.875H318.221V261.154H310.365V255.708H317.595V253.986H310.365V248.571H318.096V246.85H308.425V262.875ZM321.344 262.875H323.19V255.363C323.19 253.603 324.473 252.359 325.913 252.359C327.314 252.359 328.292 253.274 328.292 254.643V262.875H330.17V255.05C330.17 253.501 331.14 252.359 332.83 252.359C334.145 252.359 335.272 253.055 335.272 254.831V262.875H337.118V254.831C337.118 252.006 335.6 250.7 333.456 250.7C331.735 250.7 330.475 251.49 329.857 252.734H329.732C329.137 251.451 328.088 250.7 326.508 250.7C324.943 250.7 323.785 251.451 323.284 252.734H323.128V250.856H321.344V262.875ZM345.377 263.125C348.632 263.125 350.823 260.653 350.823 256.928C350.823 253.172 348.632 250.7 345.377 250.7C342.122 250.7 339.931 253.172 339.931 256.928C339.931 260.653 342.122 263.125 345.377 263.125ZM345.377 261.467C342.905 261.467 341.778 259.338 341.778 256.928C341.778 254.518 342.905 252.359 345.377 252.359C347.85 252.359 348.977 254.518 348.977 256.928C348.977 259.338 347.85 261.467 345.377 261.467ZM358.869 250.856H356.302V247.977H354.456V250.856H352.641V252.421H354.456V259.933C354.456 262.03 356.146 263.031 357.711 263.031C358.4 263.031 358.838 262.906 359.088 262.812L358.713 261.154C358.556 261.185 358.306 261.247 357.899 261.247C357.085 261.247 356.302 260.997 356.302 259.432V252.421H358.869V250.856ZM361.647 262.875H363.493V250.856H361.647V262.875ZM362.586 248.853C363.306 248.853 363.9 248.29 363.9 247.601C363.9 246.913 363.306 246.349 362.586 246.349C361.866 246.349 361.271 246.913 361.271 247.601C361.271 248.29 361.866 248.853 362.586 248.853ZM371.758 263.125C375.013 263.125 377.204 260.653 377.204 256.928C377.204 253.172 375.013 250.7 371.758 250.7C368.503 250.7 366.312 253.172 366.312 256.928C366.312 260.653 368.503 263.125 371.758 263.125ZM371.758 261.467C369.286 261.467 368.159 259.338 368.159 256.928C368.159 254.518 369.286 252.359 371.758 252.359C374.231 252.359 375.358 254.518 375.358 256.928C375.358 259.338 374.231 261.467 371.758 261.467ZM381.87 255.645C381.87 253.548 383.169 252.359 384.937 252.359C386.651 252.359 387.691 253.477 387.691 255.363V262.875H389.538V255.238C389.538 252.171 387.903 250.7 385.469 250.7C383.654 250.7 382.527 251.513 381.964 252.734H381.807V250.856H380.023V262.875H381.87V255.645ZM404.462 250.856H401.77V249.636C401.77 248.446 402.271 247.82 403.491 247.82C404.024 247.82 404.337 247.945 404.524 248.008L405.056 246.412C404.775 246.287 404.211 246.099 403.304 246.099C401.582 246.099 399.923 247.132 399.923 249.197V250.856H397.983V252.421H399.923V262.875H401.77V252.421H404.462V250.856ZM411.438 263.125C414.693 263.125 416.884 260.653 416.884 256.928C416.884 253.172 414.693 250.7 411.438 250.7C408.182 250.7 405.992 253.172 405.992 256.928C405.992 260.653 408.182 263.125 411.438 263.125ZM411.438 261.467C408.965 261.467 407.838 259.338 407.838 256.928C407.838 254.518 408.965 252.359 411.438 252.359C413.91 252.359 415.037 254.518 415.037 256.928C415.037 259.338 413.91 261.467 411.438 261.467ZM419.702 262.875H421.549V255.269C421.549 253.642 422.832 252.452 424.585 252.452C425.078 252.452 425.587 252.546 425.712 252.578V250.7C425.501 250.684 425.015 250.668 424.742 250.668C423.302 250.668 422.05 251.482 421.612 252.672H421.486V250.856H419.702V262.875Z" fill="white"/>
<path d="M286.671 279.68H290.933C290.871 275.931 287.79 273.343 283.107 273.343C278.496 273.343 275.117 275.89 275.137 279.711C275.127 282.812 277.315 284.589 280.868 285.441L283.158 286.016C285.448 286.571 286.722 287.228 286.732 288.645C286.722 290.186 285.264 291.233 283.004 291.233C280.693 291.233 279.03 290.165 278.886 288.06H274.583C274.696 292.61 277.951 294.961 283.056 294.961C288.191 294.961 291.21 292.507 291.22 288.656C291.21 285.154 288.571 283.295 284.914 282.473L283.025 282.021C281.197 281.6 279.666 280.922 279.697 279.413C279.697 278.057 280.899 277.061 283.076 277.061C285.202 277.061 286.506 278.026 286.671 279.68ZM298.504 285.544C298.514 283.51 299.757 282.319 301.544 282.319C303.321 282.319 304.368 283.459 304.358 285.4V294.664H308.733V284.62C308.743 280.922 306.566 278.684 303.28 278.684C300.887 278.684 299.285 279.813 298.566 281.672H298.381V273.631H294.129V294.664H298.504V285.544ZM316.674 294.961C319.006 294.961 320.515 293.945 321.286 292.476H321.409V294.664H325.558V284.024C325.558 280.265 322.374 278.684 318.862 278.684C315.082 278.684 312.597 280.491 311.991 283.367L316.038 283.695C316.335 282.648 317.27 281.877 318.841 281.877C320.33 281.877 321.183 282.627 321.183 283.921V283.983C321.183 285 320.104 285.133 317.362 285.4C314.24 285.688 311.437 286.735 311.437 290.258C311.437 293.38 313.665 294.961 316.674 294.961ZM317.927 291.942C316.582 291.942 315.616 291.316 315.616 290.114C315.616 288.882 316.633 288.276 318.174 288.06C319.129 287.926 320.69 287.701 321.214 287.351V289.025C321.214 290.679 319.848 291.942 317.927 291.942ZM328.952 300.579H333.327V292.137H333.461C334.066 293.452 335.391 294.92 337.938 294.92C341.533 294.92 344.336 292.076 344.336 286.797C344.336 281.374 341.409 278.684 337.949 278.684C335.309 278.684 334.046 280.255 333.461 281.539H333.265V278.889H328.952V300.579ZM333.235 286.776C333.235 283.962 334.426 282.165 336.552 282.165C338.719 282.165 339.869 284.044 339.869 286.776C339.869 289.529 338.698 291.439 336.552 291.439C334.446 291.439 333.235 289.59 333.235 286.776ZM354.442 294.972C358.345 294.972 360.974 293.072 361.59 290.145L357.544 289.878C357.102 291.079 355.972 291.706 354.514 291.706C352.326 291.706 350.94 290.258 350.94 287.906V287.896H361.682V286.694C361.682 281.333 358.437 278.684 354.267 278.684C349.625 278.684 346.616 281.98 346.616 286.848C346.616 291.85 349.584 294.972 354.442 294.972ZM350.94 285.184C351.032 283.387 352.398 281.949 354.339 281.949C356.239 281.949 357.554 283.305 357.564 285.184H350.94ZM378.358 294.972C383.144 294.972 386.122 291.696 386.122 286.838C386.122 281.949 383.144 278.684 378.358 278.684C373.572 278.684 370.594 281.949 370.594 286.838C370.594 291.696 373.572 294.972 378.358 294.972ZM378.379 291.583C376.171 291.583 375.041 289.559 375.041 286.807C375.041 284.055 376.171 282.021 378.379 282.021C380.546 282.021 381.675 284.055 381.675 286.807C381.675 289.559 380.546 291.583 378.379 291.583ZM397.45 278.889H394.318V277.831C394.318 276.763 394.749 276.137 396.033 276.137C396.557 276.137 397.091 276.25 397.44 276.363L398.21 273.076C397.666 272.912 396.464 272.645 395.119 272.645C392.151 272.645 389.943 274.319 389.943 277.749V278.889H387.714V282.175H389.943V294.664H394.318V282.175H397.45V278.889ZM405.666 273.631L413.338 287.228V294.664H417.754V287.228L425.425 273.631H420.445L415.648 282.689H415.443L410.647 273.631H405.666ZM431.623 294.972C436.409 294.972 439.387 291.696 439.387 286.838C439.387 281.949 436.409 278.684 431.623 278.684C426.838 278.684 423.859 281.949 423.859 286.838C423.859 291.696 426.838 294.972 431.623 294.972ZM431.644 291.583C429.436 291.583 428.306 289.559 428.306 286.807C428.306 284.055 429.436 282.021 431.644 282.021C433.811 282.021 434.941 284.055 434.941 286.807C434.941 289.559 433.811 291.583 431.644 291.583ZM452.348 287.947C452.358 290.063 450.91 291.172 449.339 291.172C447.686 291.172 446.618 290.011 446.607 288.152V278.889H442.232V288.933C442.243 292.62 444.399 294.869 447.573 294.869C449.945 294.869 451.65 293.647 452.358 291.798H452.523V294.664H456.723V278.889H452.348V287.947Z" fill="white"/>
<path d="M307.197 355.881H312.279V345.952H322.596V355.881H327.666V331.844H322.596V341.762H312.279V331.844H307.197V355.881ZM335.999 355.881L337.784 350.4H346.457L348.241 355.881H353.687L345.401 331.844H338.852L330.553 355.881H335.999ZM339.075 346.433L342.032 337.337H342.22L345.178 346.433H339.075ZM356.58 355.881H361.663V348.088H365.935C371.463 348.088 374.679 344.79 374.679 339.989C374.679 335.212 371.522 331.844 366.064 331.844H356.58V355.881ZM361.663 344.015V335.999H365.09C368.024 335.999 369.444 337.595 369.444 339.989C369.444 342.372 368.024 344.015 365.113 344.015H361.663ZM377.98 355.881H383.062V348.088H387.335C392.863 348.088 396.079 344.79 396.079 339.989C396.079 335.212 392.921 331.844 387.464 331.844H377.98V355.881ZM383.062 344.015V335.999H386.49C389.424 335.999 390.844 337.595 390.844 339.989C390.844 342.372 389.424 344.015 386.513 344.015H383.062ZM397.971 331.844L406.739 347.384V355.881H411.786V347.384L420.554 331.844H414.861L409.38 342.196H409.145L403.664 331.844H397.971Z" fill="#FFC000"/>
<rect x="277.564" y="422.659" width="180.407" height="8.26292" rx="4.13146" fill="#FFC000"/>
<rect x="321.633" y="172.017" width="92.2692" height="8.26292" rx="4.13146" fill="#FFC000"/>
<defs>
<filter id="filter0_f_65_87" x="0.284714" y="0.284714" width="733.431" height="602.431" filterUnits="userSpaceOnUse" color-interpolation-filters="sRGB">
<feFlood flood-opacity="0" result="BackgroundImageFix"/>
<feBlend mode="normal" in="SourceGraphic" in2="BackgroundImageFix" result="shape"/>
<feGaussianBlur stdDeviation="68.8576" result="effect1_foregroundBlur_65_87"/>
</filter>
</defs>
</svg>
