<svg width="651" height="511" viewBox="0 0 651 511" fill="none" xmlns="http://www.w3.org/2000/svg">
<path d="M23.4922 58.9219H62.5156V23.5312H76.168V114H62.5156V71.7539H23.4922V114H9.83984V23.5312H23.4922V58.9219Z" fill="white"/>
<path d="M530.86 23.5312L554.415 84L579.024 19.1367L602.579 84L627.598 23.5312H642.423L601.993 119.742L578.731 55.6406L554.473 119.801L516.036 23.5312H530.86Z" fill="white"/>
<path d="M77.6953 289.395V305.566C69.8047 298.965 61.6406 295.664 53.2031 295.664C43.9062 295.664 36.0742 299.004 29.707 305.684C23.3008 312.324 20.0977 320.449 20.0977 330.059C20.0977 339.551 23.3008 347.559 29.707 354.082C36.1133 360.605 43.9648 363.867 53.2617 363.867C58.0664 363.867 62.1484 363.086 65.5078 361.523C67.3828 360.742 69.3164 359.688 71.3086 358.359C73.3398 357.031 75.4688 355.43 77.6953 353.555V370.02C69.8828 374.434 61.6797 376.641 53.0859 376.641C40.1562 376.641 29.1211 372.129 19.9805 363.105C10.8789 354.004 6.32812 343.027 6.32812 330.176C6.32812 318.652 10.1367 308.379 17.7539 299.355C27.1289 288.301 39.2578 282.773 54.1406 282.773C62.2656 282.773 70.1172 284.98 77.6953 289.395ZM116.011 319.922H155.034V284.531H168.687V375H155.034V332.754H116.011V375H102.359V284.531H116.011V319.922ZM248.311 353.027H209.58L199.502 375H184.795L229.561 278.848L272.745 375H257.803L248.311 353.027ZM242.745 340.195L229.327 309.434L215.264 340.195H242.745ZM288.912 375V278.379L354.888 347.402V284.531H368.541V380.508L302.564 311.66V375H288.912ZM442.54 327.891H479.923V330.879C479.923 337.676 479.122 343.691 477.52 348.926C475.958 353.77 473.321 358.301 469.61 362.52C461.212 371.973 450.528 376.699 437.559 376.699C424.903 376.699 414.063 372.129 405.04 362.988C396.016 353.809 391.505 342.793 391.505 329.941C391.505 316.816 396.095 305.684 405.274 296.543C414.454 287.363 425.626 282.773 438.79 282.773C445.86 282.773 452.462 284.219 458.595 287.109C464.454 290 470.216 294.688 475.88 301.172L466.153 310.488C458.731 300.605 449.688 295.664 439.024 295.664C429.454 295.664 421.427 298.965 414.942 305.566C408.458 312.051 405.216 320.176 405.216 329.941C405.216 340.02 408.829 348.32 416.055 354.844C422.813 360.898 430.138 363.926 438.028 363.926C444.747 363.926 450.782 361.66 456.134 357.129C461.485 352.559 464.473 347.09 465.098 340.723H442.54V327.891ZM551.871 297.363H515.602V319.102H550.816V331.934H515.602V362.168H551.871V375H501.949V284.531H551.871V297.363ZM574.601 375V284.531H593.585C602.687 284.531 609.874 285.43 615.148 287.227C620.812 288.984 625.948 291.973 630.558 296.191C639.894 304.707 644.562 315.898 644.562 329.766C644.562 343.672 639.698 354.922 629.972 363.516C625.089 367.812 619.972 370.801 614.62 372.48C609.62 374.16 602.53 375 593.351 375H574.601ZM588.253 362.168H594.405C600.538 362.168 605.636 361.523 609.698 360.234C613.761 358.867 617.433 356.699 620.714 353.73C627.433 347.598 630.792 339.609 630.792 329.766C630.792 319.844 627.472 311.797 620.831 305.625C614.855 300.117 606.046 297.363 594.405 297.363H588.253V362.168Z" fill="white"/>
<path d="M23.4922 208.262V245H9.83984V154.531H25.3086C32.8867 154.531 38.6094 155.059 42.4766 156.113C46.3828 157.168 49.8203 159.16 52.7891 162.09C57.9844 167.168 60.582 173.574 60.582 181.309C60.582 189.59 57.8086 196.152 52.2617 200.996C46.7148 205.84 39.2344 208.262 29.8203 208.262H23.4922ZM23.4922 195.605H28.5898C41.1289 195.605 47.3984 190.781 47.3984 181.133C47.3984 171.797 40.9336 167.129 28.0039 167.129H23.4922V195.605Z" fill="white"/>
<path d="M122.669 223.027H83.9389L73.8608 245H59.1538L103.919 148.848L147.103 245H132.162L122.669 223.027ZM117.103 210.195L103.685 179.434L89.6225 210.195H117.103Z" fill="white"/>
<path d="M160.03 245V148.379L226.007 217.402V154.531H239.659V250.508L173.682 181.66V245H160.03Z" fill="white"/>
<path d="M262.957 245V154.531H281.942C291.043 154.531 298.231 155.43 303.504 157.227C309.168 158.984 314.305 161.973 318.914 166.191C328.25 174.707 332.918 185.898 332.918 199.766C332.918 213.672 328.055 224.922 318.328 233.516C313.446 237.812 308.328 240.801 302.977 242.48C297.977 244.16 290.887 245 281.707 245H262.957ZM276.61 232.168H282.762C288.895 232.168 293.992 231.523 298.055 230.234C302.117 228.867 305.789 226.699 309.071 223.73C315.789 217.598 319.149 209.609 319.149 199.766C319.149 189.844 315.828 181.797 309.188 175.625C303.211 170.117 294.403 167.363 282.762 167.363H276.61V232.168Z" fill="white"/>
<path d="M401.627 167.363H365.357V189.102H400.572V201.934H365.357V232.168H401.627V245H351.705V154.531H401.627V167.363Z" fill="white"/>
<path d="M417.952 245L436.995 147.734L468.05 218.047L500.218 147.734L517.327 245H503.323L494.593 190.391L467.816 249.16L441.8 190.332L432.073 245H417.952Z" fill="white"/>
<path d="M551.758 154.531V245H538.106V154.531H551.758Z" fill="white"/>
<path d="M641.912 159.395V175.566C634.022 168.965 625.857 165.664 617.42 165.664C608.123 165.664 600.291 169.004 593.924 175.684C587.518 182.324 584.315 190.449 584.315 200.059C584.315 209.551 587.518 217.559 593.924 224.082C600.33 230.605 608.182 233.867 617.479 233.867C622.283 233.867 626.365 233.086 629.725 231.523C631.6 230.742 633.533 229.688 635.525 228.359C637.557 227.031 639.686 225.43 641.912 223.555V240.02C634.1 244.434 625.897 246.641 617.303 246.641C604.373 246.641 593.338 242.129 584.197 233.105C575.096 224.004 570.545 213.027 570.545 200.176C570.545 188.652 574.354 178.379 581.971 169.355C591.346 158.301 603.475 152.773 618.357 152.773C626.482 152.773 634.334 154.98 641.912 159.395Z" fill="white"/>
<path d="M10.6758 506L29.7188 408.734L60.7734 479.047L92.9414 408.734L110.051 506H96.0469L87.3164 451.391L60.5391 510.16L34.5234 451.332L24.7969 506H10.6758Z" fill="white"/>
<path d="M400.156 429.008L389.082 435.57C387.012 431.977 385.039 429.633 383.164 428.539C381.211 427.289 378.691 426.664 375.605 426.664C371.816 426.664 368.672 427.738 366.172 429.887C363.672 431.996 362.422 434.652 362.422 437.855C362.422 442.27 365.703 445.824 372.266 448.52L381.289 452.211C388.633 455.18 394.004 458.812 397.402 463.109C400.801 467.367 402.5 472.602 402.5 478.812C402.5 487.133 399.727 494.008 394.18 499.438C388.594 504.906 381.66 507.641 373.379 507.641C365.527 507.641 359.043 505.316 353.926 500.668C348.887 496.02 345.742 489.477 344.492 481.039L358.32 477.992C358.945 483.305 360.039 486.977 361.602 489.008C364.414 492.914 368.516 494.867 373.906 494.867C378.164 494.867 381.699 493.441 384.512 490.59C387.324 487.738 388.73 484.125 388.73 479.75C388.73 477.992 388.477 476.391 387.969 474.945C387.5 473.461 386.738 472.113 385.684 470.902C384.668 469.652 383.34 468.5 381.699 467.445C380.059 466.352 378.105 465.316 375.84 464.34L367.109 460.707C354.727 455.473 348.535 447.816 348.535 437.738C348.535 430.941 351.133 425.258 356.328 420.688C361.523 416.078 367.988 413.773 375.723 413.773C386.152 413.773 394.297 418.852 400.156 429.008Z" fill="white"/>
<path d="M434.652 415.531V506H421V415.531H434.652Z" fill="white"/>
<rect x="104.5" y="31.5" width="395" height="77" rx="38.5" stroke="white" stroke-width="13"/>
<path fill-rule="evenodd" clip-rule="evenodd" d="M644 415H503C478.147 415 458 435.147 458 460C458 484.853 478.147 505 503 505H644V492H503C485.327 492 471 477.673 471 460C471 442.327 485.327 428 503 428H644V415Z" fill="white"/>
<path d="M142 413.5V453.5C142 478.905 162.595 499.5 188 499.5H273.5C298.905 499.5 319.5 478.905 319.5 453.5V418" stroke="white" stroke-width="14"/>
<g filter="url(#filter0_f_84_32)">
<mask id="mask0_84_32" style="mask-type:alpha" maskUnits="userSpaceOnUse" x="124" y="50" width="358" height="40">
<rect x="124" y="50" width="358" height="40" rx="20" fill="url(#paint0_linear_84_32)"/>
</mask>
<g mask="url(#mask0_84_32)">
<rect x="124" y="32" width="23" height="77" fill="#E53343"/>
<rect x="147" y="32" width="25" height="77" fill="#D93127"/>
<rect x="172" y="32" width="23" height="77" fill="#EB5D21"/>
<rect x="195" y="32" width="25" height="77" fill="#EFC65E"/>
<rect x="220" y="32" width="23" height="77" fill="#CFB12B"/>
<rect x="243" y="32" width="24" height="77" fill="#99AC2C"/>
<rect x="267" y="32" width="24" height="77" fill="#519735"/>
<rect x="291" y="32" width="24" height="77" fill="#349B54"/>
<rect x="315" y="32" width="24" height="77" fill="#28A57C"/>
<rect x="339" y="32" width="24" height="77" fill="#32B3A3"/>
<rect x="363" y="32" width="23" height="77" fill="#2EACB7"/>
<rect x="386" y="32" width="25" height="77" fill="#2099BD"/>
<rect x="411" y="32" width="23" height="77" fill="#4672B0"/>
<rect x="434" y="32" width="25" height="77" fill="#9664B8"/>
<rect x="459" y="32" width="23" height="77" fill="#6C6AB6"/>
</g>
</g>
<defs>
<filter id="filter0_f_84_32" x="74" y="0" width="458" height="140" filterUnits="userSpaceOnUse" color-interpolation-filters="sRGB">
<feFlood flood-opacity="0" result="BackgroundImageFix"/>
<feBlend mode="normal" in="SourceGraphic" in2="BackgroundImageFix" result="shape"/>
<feGaussianBlur stdDeviation="25" result="effect1_foregroundBlur_84_32"/>
</filter>
<linearGradient id="paint0_linear_84_32" x1="124" y1="70" x2="482" y2="70" gradientUnits="userSpaceOnUse">
<stop stop-color="#FFD600"/>
<stop offset="1" stop-color="#0AF7E8"/>
</linearGradient>
</defs>
</svg>
